Description

Poster: http://cdn.piczend.com/image/glkhl41y3gltytanefcayszku.jpeg
Release date: 2012
Genre: Action
Plot: A group of teenagers look to save their town from an invasion of North Korean soldiers.
--------------------------------

Runtime: 1 h 33 min
Rating: 5.5/10
Votes: 10,021
Writer(s)/Director(s): Carl Ellsworth, Jeremy Passmore/Dan Bradley
Actors: Chris Hemsworth, Isabel Lucas, Josh Hutcherson, Josh Peck
Trailer: http://www.imdb.com/video/imdb/vi3511591961/

Screenshots:
 
http://cdn.piczend.com/image/4bgh9dtsbq3souh0cjbnzd0dk.jpeg
 
http://cdn.piczend.com/image/6fjf6way3hx7rq9ijrm3ydvxf.jpeg
 
http://cdn.piczend.com/image/8xiz1jv7s13f1rzzpwqvvp4db.jpeg
 
http://cdn.piczend.com/image/y1ejpkidi74st1bkvhbd60sth.jpeg


Mediainfo:
General
Complete name : 	Red Dawn (2012) BRRip 528p [Zend]/Red Dawn (2012) BRRip 528p [Zend].mp4
Format : 	MPEG-4
Format profile : 	Base Media
Codec ID : 	isom
File size : 	1.03 GiB
Duration : 	1h 33mn
Overall bit rate mode : 	Variable
Overall bit rate : 	1 581 Kbps
Encoded date : 	UTC 2013-02-26 02:06:52
Tagged date : 	UTC 2013-02-26 02:06:52
Writing application : 	Lavf53.21.1

Video
ID : 	1
Format : 	AVC
Format/Info : 	Advanced Video Codec
Format profile : 	Main@L3.1
Format settings, CABAC : 	Yes
Format settings, ReFrames : 	3 frames
Codec ID : 	avc1
Codec ID/Info : 	Advanced Video Coding
Duration : 	1h 33mn
Bit rate : 	1 500 Kbps
Width : 	1 280 pixels
Height : 	528 pixels
Display aspect ratio : 	2.40:1
Frame rate mode : 	Constant
Frame rate : 	23.976 fps
Color space : 	YUV
Chroma subsampling : 	4:2:0
Bit depth : 	8 bits
Scan type : 	Progressive
Bits/(Pixel*Frame) : 	0.093
Stream size : 	988 MiB (94%)
Writing library : 	x264 core 123 r2189 35cf912
Encoding settings : 	cabac=1 / ref=3 / deblock=1:0:0 / analyse=0x1:0x111 / me=hex / subme=7 / psy=1 / psy_rd=1.00:0.00 / mixed_ref=0 / me_range=16 / chroma_me=1 / trellis=1 / 8x8dct=0 / cqm=0 / deadzone=21,11 / fast_pskip=1 / chroma_qp_offset=-2 / threads=6 / sliced_threads=0 / nr=0 / decimate=1 / interlaced=0 / bluray_compat=0 / constrained_intra=0 / bframes=3 / b_pyramid=0 / b_adapt=1 / b_bias=0 / direct=1 / weightb=0 / open_gop=1 / weightp=2 / keyint=250 / keyint_min=23 / scenecut=40 / intra_refresh=0 / rc_lookahead=40 / rc=abr / mbtree=1 / bitrate=1500 / ratetol=1.0 / qcomp=0.60 / qpmin=0 / qpmax=69 / qpstep=4 / ip_ratio=1.25 / aq=1:1.00
Encoded date : 	UTC 2013-02-26 02:06:52
Tagged date : 	UTC 2013-02-26 02:06:52

Audio
ID : 	2
Format : 	AAC
Format/Info : 	Advanced Audio Codec
Format profile : 	LC
Codec ID : 	40
Duration : 	1h 33mn
Bit rate mode : 	Variable
Bit rate : 	96.0 Kbps
Channel(s) : 	2 channels
Channel positions : 	Front: L R
Sampling rate : 	48.0 KHz
Compression mode : 	Lossy
Delay relative to video : 	42ms
Stream size : 	64.0 MiB (6%)
Language : 	English
Encoded date : 	UTC 2013-02-26 02:06:52
Tagged date : 	UTC 2013-02-26 02:06:52
